<?xml version="1.0" standalone="no"?>
<!DOCTYPE svg PUBLIC "-//W3C//DTD SVG 20010904//EN"
 "http://www.w3.org/TR/2001/REC-SVG-20010904/DTD/svg10.dtd">
<svg version="1.0" xmlns="http://www.w3.org/2000/svg"
 width="180.000000pt" height="180.000000pt" viewBox="0 0 180.000000 180.000000"
 preserveAspectRatio="xMidYMid meet">
<metadata>
Created by potrace 1.14, written by Peter Selinger 2001-2017
</metadata>
<g transform="translate(0.000000,180.000000) scale(0.100000,-0.100000)"
fill="#000000" stroke="none">
<path d="M0 900 l0 -900 900 0 900 0 0 900 0 900 -900 0 -900 0 0 -900z m1280
441 c18 -5 6 -9 -49 -14 -86 -9 -130 -26 -66 -27 22 0 55 -4 74 -10 35 -10
111 -57 111 -70 0 -3 -60 -17 -132 -29 -278 -47 -516 -116 -656 -192 l-74 -39
30 38 c38 48 103 107 165 151 26 19 47 36 47 38 0 7 -122 -52 -213 -103 -196
-111 -358 -257 -395 -356 -10 -27 -22 -50 -27 -51 -13 -3 -33 64 -34 114 -1
60 34 129 105 208 183 202 599 347 999 349 50 0 101 -3 115 -7z m460 -302 c0
-100 -94 -231 -233 -323 -237 -156 -538 -237 -877 -235 l-155 1 94 14 c52 7
96 15 98 17 2 2 -22 7 -52 11 -62 7 -119 32 -149 64 -22 25 -33 21 154 52 241
40 468 107 609 181 41 21 76 37 78 35 8 -8 -135 -145 -187 -180 -64 -44 -37
-39 65 11 253 126 458 299 495 416 8 23 16 46 19 52 9 18 40 -70 41 -116z
m-350 16 c0 -13 -9 -50 -21 -80 -20 -53 -22 -55 -35 -37 -8 11 -44 30 -81 42
-38 13 -72 26 -77 30 -11 11 19 26 100 49 96 27 114 27 114 -4z m-866 -204
c30 -11 67 -23 81 -27 36 -9 31 -20 -17 -38 -44 -16 -155 -46 -171 -46 -13 0
-3 70 19 126 15 39 19 43 25 26 5 -12 29 -28 63 -41z"/>
</g>
</svg>
